<svg version="1.1" id="Layer_1" xmlns="http://www.w3.org/2000/svg" xmlns:xlink="http://www.w3.org/1999/xlink" x="0px" y="0px"
	 width="100%" viewBox="0 0 153 153" enable-background="new 0 0 153 153" xml:space="preserve">
<path fill="#5A5A5A" opacity="1.000000" stroke="none" 
	d="
M140.000000,154.000000 
	C121.645775,154.000000 103.291542,154.000000 84.552399,153.594711 
	C84.807655,147.796204 85.447830,142.402985 86.453857,137.005005 
	C88.694359,136.843552 91.222916,137.165054 89.227852,133.742371 
	C91.540176,132.031937 93.628075,130.593369 94.943253,129.687210 
	C94.539307,126.830963 94.151154,124.086342 93.763000,121.341728 
	C94.131737,121.211121 94.500473,121.080513 94.869217,120.949905 
	C95.444756,122.257156 96.020302,123.564415 96.595840,124.871674 
	C96.794006,124.821877 96.992180,124.772087 97.190346,124.722290 
	C96.783485,120.133766 96.376617,115.545235 96.121002,110.604332 
	C96.861092,106.908737 97.449944,103.565514 98.315239,99.940826 
	C98.058365,96.713867 97.525047,93.768387 97.157883,90.495728 
	C104.442421,86.701828 109.898384,87.158424 114.842293,91.634605 
	C118.817978,95.234169 119.835266,101.067192 117.471672,107.307564 
	C116.591324,109.631874 115.443527,111.854401 114.547386,114.173462 
	C114.200996,115.069855 114.214157,116.105202 114.063522,117.077240 
	C114.711723,117.277649 115.359932,117.478058 116.008133,117.678474 
	C117.703186,112.352562 120.241112,107.127373 120.892418,101.676750 
	C121.830162,93.829010 117.077560,87.294159 109.343315,86.115265 
	C104.751007,85.415298 99.767372,87.282730 94.611641,88.059998 
	C93.220291,87.342072 91.997643,86.715286 91.163422,85.752083 
	C86.520615,80.391502 81.972015,74.949310 77.824608,69.487900 
	C83.139870,69.203568 88.021713,68.966370 92.961533,69.071365 
	C94.314980,69.416664 95.610428,69.419777 96.905884,69.422890 
	C96.798294,68.526894 96.690704,67.630898 96.713654,66.503723 
	C97.355545,65.799431 97.866890,65.326317 98.629547,64.830612 
	C98.770493,64.501595 98.660118,64.195168 98.420059,63.715942 
	C98.121674,63.152271 97.952950,62.761410 97.938324,62.246124 
	C98.187828,62.039921 98.283226,61.958141 98.378632,61.876362 
	C98.130363,61.992477 97.882095,62.108597 97.341370,62.358677 
	C90.376282,67.990112 82.948341,67.870689 75.231506,65.373726 
	C73.206978,64.718643 71.273315,63.776917 69.240273,63.155396 
	C66.354149,62.273075 66.007584,63.555443 66.780846,66.121964 
	C61.974026,66.544098 57.524685,66.852493 53.074497,66.865326 
	C48.938408,66.877235 46.813393,68.572876 47.091103,72.921127 
	C47.025276,72.982872 46.901249,73.114006 46.569611,72.998566 
	C44.159382,71.959106 42.080788,71.035072 40.087318,69.697372 
	C39.477940,59.484383 38.783447,49.685078 38.050667,39.465027 
	C38.385166,35.041161 38.757954,31.038031 39.447952,26.916241 
	C42.255356,23.560398 44.745544,20.323217 47.602386,17.014866 
	C50.997147,15.876373 54.025253,14.809051 57.407608,13.805294 
	C58.472778,13.792477 59.183697,13.716093 60.313828,13.740842 
	C61.285595,13.356615 61.996792,12.966150 62.356213,12.365268 
	C63.014736,11.264334 63.465599,10.039184 64.059006,9.244825 
	C65.046844,11.481439 65.514679,13.951136 67.000740,15.077833 
	C70.904533,18.037607 75.251747,20.412540 79.524597,23.380295 
	C80.995293,25.349663 82.068588,27.593521 83.809074,28.403240 
	C85.843246,29.349588 88.468651,29.204765 90.810738,29.069412 
	C91.086075,29.053499 91.412094,26.090267 91.305832,24.521013 
	C91.222771,23.294485 90.505859,22.110876 90.049881,20.517658 
	C88.362762,15.092698 86.696350,10.058274 85.412659,4.933622 
	C87.332283,6.751184 88.869194,8.658975 91.071564,11.392803 
	C101.207619,8.759335 110.179825,13.218538 118.213745,20.555696 
	C120.347649,22.504528 122.697960,24.216402 124.972687,26.020935 
	C124.996460,26.004801 124.960838,26.050072 124.981636,26.392941 
	C127.419083,30.045450 129.559769,33.611195 132.328278,36.594288 
	C135.224808,39.715305 138.724777,42.276302 142.109344,45.374413 
	C144.047134,47.821209 145.836517,49.975677 147.749359,52.489624 
	C153.417603,64.619881 152.189011,73.655922 143.497559,82.606377 
	C137.936447,84.297935 136.363464,87.606293 136.730255,93.096848 
	C138.085266,113.380188 138.950592,133.696243 140.000000,154.000000 
M102.228355,73.238373 
	C99.364807,76.365021 103.414238,75.382408 104.323036,77.116180 
	C105.266808,76.855141 106.210579,76.594093 107.634247,75.942009 
	C109.050301,75.513863 110.466354,75.085716 112.340401,75.319489 
	C115.921913,74.648331 119.563950,74.197784 123.066025,73.237045 
	C125.929199,72.451584 128.722992,71.245811 131.366104,69.876221 
	C133.659256,68.687965 138.411072,70.870895 137.576843,65.346146 
	C139.334564,65.070297 140.913300,64.822540 142.233673,64.615326 
	C142.499252,62.508801 142.954346,60.736610 142.849289,58.998276 
	C142.792252,58.054447 141.782028,57.168221 141.201767,56.256020 
	C140.451447,56.878624 139.701126,57.501232 138.226898,58.042725 
	C132.609222,63.893459 125.614677,62.631329 118.527931,60.892910 
	C118.440964,61.448471 118.353996,62.004036 118.267029,62.559597 
	C119.845169,63.396809 121.423309,64.234016 122.864052,65.770729 
	C121.882988,67.242737 120.901917,68.714752 119.118439,70.221535 
	C116.754112,70.500618 114.389786,70.779701 111.571014,70.529427 
	C108.673050,71.445953 105.775093,72.362480 102.228355,73.238373 
M102.056763,35.928761 
	C102.677879,34.976254 103.817429,33.986416 103.752411,33.083309 
	C103.702415,32.388889 102.129929,31.252043 101.245384,31.262180 
	C96.606644,31.315342 91.971382,31.671219 87.334908,31.921917 
	C87.235664,32.745972 87.136421,33.570030 87.037178,34.394085 
	C89.434898,35.063869 91.797920,36.033264 94.240448,36.316059 
	C96.515099,36.579426 98.874352,36.111954 102.056763,35.928761 
M105.328117,67.283821 
	C105.552269,67.071213 105.791779,66.871521 105.989456,66.636627 
	C106.036957,66.580177 105.940941,66.301430 105.918724,66.302414 
	C104.763077,66.353157 103.608276,66.423073 102.453384,66.490952 
	C102.495468,66.905151 102.537560,67.319351 102.579651,67.733551 
	C103.309715,67.682953 104.039780,67.632347 105.328117,67.283821 
M102.352844,55.076893 
	C101.768646,55.423256 101.184456,55.769619 100.600258,56.115982 
	C101.102173,56.382545 101.604088,56.649109 102.106003,56.915676 
	C102.403961,56.353233 102.701920,55.790791 102.352844,55.076893 
M96.438797,57.707256 
	C96.708191,57.989395 96.975090,58.274216 97.260788,58.538746 
	C97.268204,58.545616 97.480972,58.330711 97.597969,58.219231 
	C97.328232,57.937069 97.058487,57.654907 96.438797,57.707256 
M129.806641,71.147316 
	C129.191696,71.205429 128.576752,71.263542 127.961807,71.321648 
	C127.995293,71.537216 128.028778,71.752785 128.062271,71.968353 
	C128.753937,71.827744 129.445587,71.687141 129.806641,71.147316 
M109.415298,78.482941 
	C109.415298,78.482941 109.522186,78.420486 109.415298,78.482941 
z"/>
<path fill="#FDC747" opacity="1.000000" stroke="none" 
	d="
M1.000000,94.000000 
	C1.000000,63.088306 1.000000,32.176613 1.000000,1.000000 
	C21.020115,1.000000 41.041401,1.000000 61.476128,1.346991 
	C58.996574,5.846096 56.460423,10.378813 50.650932,11.147929 
	C50.041309,11.228638 49.586407,12.477999 48.860947,13.439628 
	C47.339710,14.742421 46.017239,15.790745 44.375481,16.918880 
	C41.747204,20.339268 39.438213,23.679844 37.077789,27.481359 
	C37.045589,32.281658 37.064819,36.621021 37.021671,41.408207 
	C37.357731,47.468544 37.797318,53.078556 38.138237,58.694561 
	C38.324497,61.762905 37.686970,63.584930 33.860653,62.015064 
	C27.828337,59.540127 21.930613,60.522949 17.077234,64.712471 
	C8.197419,72.377686 3.449175,82.374237 1.706715,93.976395 
	C1.471885,93.999283 1.000000,94.000000 1.000000,94.000000 
z"/>
<path fill="#FDC747" opacity="1.000000" stroke="none" 
	d="
M88.000000,1.000000 
	C109.922722,1.000000 131.845444,1.000000 154.000000,1.000000 
	C154.000000,20.353611 154.000000,39.708145 153.698883,59.374931 
	C152.864395,58.441978 152.331039,57.196785 151.799133,55.598083 
	C151.186905,54.199001 150.573227,53.153431 149.974609,52.073784 
	C149.989685,52.039703 149.915497,52.032604 149.810486,51.703568 
	C147.545700,48.864918 145.385910,46.355301 143.124557,43.570251 
	C139.250992,38.749020 135.677109,34.014370 131.611313,29.748587 
	C129.940384,27.995457 127.209549,27.252518 124.960838,26.050072 
	C124.960838,26.050072 124.996460,26.004801 125.177536,25.682735 
	C123.475662,20.468170 119.212448,17.931746 115.290268,14.997509 
	C113.506699,13.663207 112.331879,11.005001 110.434792,10.436756 
	C106.232956,9.178150 101.672997,7.994354 97.398262,8.368820 
	C91.346367,8.898965 89.609985,5.373665 88.000000,1.000000 
z"/>
<path fill="#FCFBFB" opacity="1.000000" stroke="none" 
	d="
M72.000000,154.000000 
	C61.979107,154.000000 51.958210,154.000000 41.361374,153.607071 
	C42.959896,143.037827 46.794983,133.663086 53.676266,126.357964 
	C53.224873,124.349365 52.718475,122.724655 52.640038,121.079536 
	C52.628063,120.828369 54.603985,120.197784 55.646080,120.228653 
	C61.102051,120.390251 66.553375,120.708458 72.128799,121.356018 
	C71.543266,123.416435 69.803093,125.519402 70.291496,126.701859 
	C73.995819,135.670197 73.068451,144.806824 72.000000,154.000000 
z"/>
<path fill="#FDC748" opacity="1.000000" stroke="none" 
	d="
M154.000000,70.000000 
	C154.000000,98.000038 154.000000,126.000069 154.000000,154.000000 
	C150.256500,154.000000 146.607422,154.000000 142.534866,153.548401 
	C141.859253,148.035568 141.607132,142.974319 141.449524,137.845749 
	C141.704254,137.577408 141.698563,137.373993 141.436295,136.804413 
	C141.397079,135.946915 141.448502,135.453125 141.840149,134.820282 
	C142.774368,125.520424 143.394653,116.361084 143.906769,107.195702 
	C143.943237,106.542999 143.073639,105.885384 142.819672,105.161835 
	C142.165451,103.297981 140.938110,101.303993 141.177094,99.528549 
	C141.640869,96.082787 142.953110,92.751228 143.915070,89.372574 
	C145.496902,89.065315 147.077469,88.757820 149.478836,88.290649 
	C148.778885,86.185577 148.203766,84.455917 147.727386,82.376587 
	C148.890076,80.373718 150.103241,78.795471 150.980927,77.048660 
	C152.126328,74.768974 153.005997,72.355759 154.000000,70.000000 
z"/>
<path fill="#8D7B6F" opacity="1.000000" stroke="none" 
	d="
M72.006317,120.972229 
	C66.553375,120.708458 61.102051,120.390251 55.646080,120.228653 
	C54.603985,120.197784 52.628063,120.828369 52.640038,121.079536 
	C52.718475,122.724655 53.224873,124.349365 53.676266,126.357964 
	C46.794983,133.663086 42.959896,143.037827 40.892715,153.607071 
	C35.645069,154.000000 30.290140,154.000000 24.589767,153.669876 
	C24.900354,150.612762 25.556385,147.885788 26.583206,145.125580 
	C29.247444,145.092377 31.540888,145.092377 33.834332,145.092377 
	C33.927898,144.376831 34.021465,143.661301 34.115032,142.945755 
	C32.077248,142.296906 30.039465,141.648056 27.959465,140.627075 
	C28.596113,138.756348 29.274977,137.257736 30.163208,136.105408 
	C32.226215,136.551880 34.079853,136.652100 35.933491,136.752319 
	C36.057728,136.050247 36.181961,135.348160 36.306194,134.646088 
	C34.350895,134.000214 32.395596,133.354355 30.418106,132.359314 
	C31.661207,128.152710 32.926498,124.295288 34.233742,120.309982 
	C31.652613,118.655563 29.451414,117.244667 27.215515,115.542465 
	C27.191462,114.861153 27.202108,114.471130 27.609324,114.072876 
	C36.674534,114.720924 45.336411,115.532654 54.017174,115.910561 
	C55.893898,115.992264 58.186691,114.923683 59.674805,113.661934 
	C62.257973,111.471672 63.906479,111.211578 65.073082,115.182190 
	C64.271484,122.003227 69.100426,119.465179 71.999146,120.244888 
	C72.000732,120.487343 72.006317,120.972229 72.006317,120.972229 
z"/>
<path fill="#907E6F" opacity="1.000000" stroke="none" 
	d="
M72.128799,121.356018 
	C72.006317,120.972229 72.000732,120.487343 72.387436,120.243134 
	C76.146965,120.005997 79.519791,120.013062 82.940758,120.485260 
	C82.659271,131.966934 82.329636,142.983475 82.000000,154.000000 
	C78.969406,154.000000 75.938812,154.000000 72.454109,154.000000 
	C73.068451,144.806824 73.995819,135.670197 70.291496,126.701859 
	C69.803093,125.519402 71.543266,123.416435 72.128799,121.356018 
z"/>
<path fill="#8D7A6D" opacity="1.000000" stroke="none" 
	d="
M22.000000,154.000000 
	C20.285625,154.000000 18.571249,154.000000 16.638546,153.727280 
	C17.724941,152.077271 19.029665,150.699997 20.788788,148.843048 
	C14.860869,146.750198 11.638905,149.756790 8.003651,151.482056 
	C7.175353,146.327271 6.489777,141.521973 6.268761,136.768433 
	C8.396753,136.862381 10.089972,137.110764 11.713425,136.876221 
	C12.846243,136.712585 13.883490,135.887405 14.963428,135.357727 
	C14.234729,134.204758 13.765771,132.591492 12.719591,132.001144 
	C10.917498,130.984253 8.756089,130.604141 6.824224,129.597656 
	C7.844928,127.622879 8.786880,126.007225 10.140210,124.580025 
	C15.247200,125.564056 20.182384,125.787804 23.234226,130.490646 
	C22.337862,133.520401 21.592947,136.204895 20.428530,138.939606 
	C17.587526,139.307220 15.085652,139.360382 12.780818,140.061386 
	C11.738711,140.378357 11.088414,141.983536 10.260361,143.004288 
	C11.429489,143.526978 12.591548,144.468445 13.769168,144.488342 
	C16.533651,144.535004 19.305574,144.140900 22.280685,144.259323 
	C22.324589,147.728973 22.162294,150.864487 22.000000,154.000000 
z"/>
<path fill="#EFE9DB" opacity="1.000000" stroke="none" 
	d="
M87.750000,1.000000 
	C89.609985,5.373665 91.346367,8.898965 97.398262,8.368820 
	C101.672997,7.994354 106.232956,9.178150 110.434792,10.436756 
	C112.331879,11.005001 113.506699,13.663207 115.290268,14.997509 
	C119.212448,17.931746 123.475662,20.468170 125.153763,25.698872 
	C122.697960,24.216402 120.347649,22.504528 118.213745,20.555696 
	C110.179825,13.218538 101.207619,8.759335 91.071564,11.392803 
	C88.869194,8.658975 87.332283,6.751184 85.017288,4.932922 
	C77.493813,6.303576 70.748436,7.584702 64.003052,8.865828 
	C63.465599,10.039184 63.014736,11.264334 62.356213,12.365268 
	C61.996792,12.966150 61.285595,13.356615 60.112030,13.561321 
	C58.678467,13.434355 57.865910,13.588041 57.053356,13.741728 
	C54.025253,14.809051 50.997147,15.876373 47.178749,16.981268 
	C45.823895,16.958918 45.259335,16.898994 44.694771,16.839069 
	C46.017239,15.790745 47.339710,14.742421 49.258324,13.384622 
	C52.873653,12.303933 57.603065,12.443861 58.590584,10.590263 
	C61.525158,5.082000 66.941040,5.311585 71.755508,3.248450 
	C77.111954,2.514004 82.055977,1.757002 87.000000,1.000000 
	C87.000000,1.000000 87.500000,1.000000 87.750000,1.000000 
z"/>
<path fill="#1B1A19" opacity="1.000000" stroke="none" 
	d="
M5.804200,136.716660 
	C6.489777,141.521973 7.175353,146.327271 7.981708,151.844482 
	C8.068323,153.037598 8.034162,153.518799 8.000000,154.000000 
	C7.555555,154.000000 7.111111,154.000000 6.362967,153.629272 
	C5.039228,151.735428 4.019190,150.212296 3.050493,148.604034 
	C3.101833,148.518906 2.987947,148.355927 3.337025,148.124435 
	C2.468229,138.958725 3.064360,130.279480 7.564766,121.890602 
	C7.905836,120.779190 7.991829,119.890327 8.393147,118.892441 
	C12.874187,115.355011 17.039906,111.926605 21.971254,107.868088 
	C21.987938,107.673874 22.115034,106.194412 22.577755,104.798050 
	C23.776659,106.063194 24.867743,107.144196 25.447727,108.451889 
	C26.239862,110.237915 26.642912,112.196503 27.212755,114.081116 
	C27.202108,114.471130 27.191462,114.861153 26.957775,115.672592 
	C26.493397,116.386345 26.252058,116.678680 25.732714,116.783234 
	C24.282766,115.120186 23.110826,113.644913 21.908550,112.131454 
	C16.044224,114.698303 11.541070,118.203735 9.728834,124.391571 
	C8.786880,126.007225 7.844928,127.622879 6.618267,129.911148 
	C6.157105,132.628052 5.980652,134.672363 5.804200,136.716660 
z"/>
<path fill="#F4F3EC" opacity="1.000000" stroke="none" 
	d="
M141.499939,134.959351 
	C141.448502,135.453125 141.397079,135.946915 141.347656,136.979889 
	C141.349686,137.519073 141.355011,137.913086 141.355011,137.913086 
	C141.607132,142.974319 141.859253,148.035568 142.055695,153.548401 
	C141.555557,154.000000 141.111099,154.000000 140.333328,154.000000 
	C138.950592,133.696243 138.085266,113.380188 136.730255,93.096848 
	C136.363464,87.606293 137.936447,84.297935 143.559250,83.041252 
	C144.007309,83.626198 144.045334,83.916222 143.899628,84.507866 
	C139.938232,86.133202 138.504364,88.639244 138.969360,92.725197 
	C139.619370,98.436707 139.786072,104.203224 140.133423,110.232979 
	C140.146423,110.707687 140.185577,110.895630 140.172394,111.531555 
	C140.580048,119.639473 141.039993,127.299416 141.499939,134.959351 
z"/>
<path fill="#0F0C0A" opacity="1.000000" stroke="none" 
	d="
M26.010719,116.971016 
	C26.252058,116.678680 26.493397,116.386345 26.992476,115.963890 
	C29.451414,117.244667 31.652613,118.655563 34.233742,120.309982 
	C32.926498,124.295288 31.661207,128.152710 30.250689,132.719635 
	C30.054922,134.205811 30.004383,134.982468 29.953842,135.759140 
	C29.274977,137.257736 28.596113,138.756348 27.689735,140.825989 
	C27.045618,142.650955 26.629015,143.904877 26.212414,145.158798 
	C25.556385,147.885788 24.900354,150.612762 24.122162,153.669876 
	C23.555555,154.000000 23.111111,154.000000 22.333332,154.000000 
	C22.162294,150.864487 22.324589,147.728973 22.236614,143.891327 
	C21.606909,141.755936 21.227472,140.322662 20.848034,138.889389 
	C21.592947,136.204895 22.337862,133.520401 23.477886,130.287384 
	C24.200388,129.376770 24.490269,128.969971 24.860743,128.659286 
	C31.447332,123.135590 31.449446,123.138107 26.010719,116.971016 
M26.193853,136.630402 
	C26.771688,134.568832 27.349524,132.507263 27.927357,130.445709 
	C27.482193,130.344376 27.037029,130.243057 26.591866,130.141724 
	C23.858582,133.353058 21.909109,136.763077 24.242855,142.119278 
	C25.018408,140.035645 25.514927,138.701660 26.193853,136.630402 
z"/>
<path fill="#16110E" opacity="1.000000" stroke="none" 
	d="
M82.333336,154.000000 
	C82.329636,142.983475 82.659271,131.966934 83.030014,120.141312 
	C85.763374,117.203011 88.455635,115.073814 91.376495,112.841194 
	C91.995064,112.434349 92.385040,112.130928 93.023941,111.910637 
	C93.447716,112.000084 93.622566,112.006401 93.858902,112.058167 
	C93.920380,112.103630 94.034042,112.205956 94.132072,112.489594 
	C95.083946,116.323868 91.940689,116.783974 89.682884,118.296005 
	C83.256638,122.421471 86.667305,128.054428 86.819870,133.351715 
	C86.800728,133.563522 86.783058,133.988495 86.546524,134.208893 
	C86.235992,135.289444 86.161995,136.149612 86.087997,137.009766 
	C85.447830,142.402985 84.807655,147.796204 84.083740,153.594711 
	C83.555557,154.000000 83.111107,154.000000 82.333336,154.000000 
z"/>
<path fill="#F0EDE2" opacity="1.000000" stroke="none" 
	d="
M144.083359,84.206253 
	C144.045334,83.916222 144.007309,83.626198 143.907593,82.901291 
	C152.189011,73.655922 153.417603,64.619881 148.130524,52.455425 
	C148.897308,52.052032 149.406403,52.042320 149.915497,52.032604 
	C149.915497,52.032604 149.989685,52.039703 149.989471,52.401154 
	C150.592056,53.825600 151.194870,54.888596 151.797684,55.951591 
	C152.331039,57.196785 152.864395,58.441978 153.698883,59.843590 
	C154.000000,63.030594 154.000000,66.061188 154.000000,69.545891 
	C153.005997,72.355759 152.126328,74.768974 150.980927,77.048660 
	C150.103241,78.795471 148.890076,80.373718 147.432617,82.495163 
	C146.053879,83.377670 145.068619,83.791962 144.083359,84.206253 
z"/>
<path fill="#FAC741" opacity="1.000000" stroke="none" 
	d="
M71.343079,3.225894 
	C66.941040,5.311585 61.525158,5.082000 58.590584,10.590263 
	C57.603065,12.443861 52.873653,12.303933 49.457096,13.130152 
	C49.586407,12.477999 50.041309,11.228638 50.650932,11.147929 
	C56.460423,10.378813 58.996574,5.846096 61.944786,1.346991 
	C64.370560,1.000000 66.741112,1.000000 69.592903,1.341526 
	C70.497116,2.197333 70.920097,2.711614 71.343079,3.225894 
z"/>
<path fill="#F7C749" opacity="1.000000" stroke="none" 
	d="
M1.000001,131.000000 
	C1.000000,122.645767 1.000000,114.291534 1.217128,105.469093 
	C1.434256,105.000885 1.868412,105.010277 1.927215,105.425018 
	C3.195584,111.231422 4.405149,116.623077 5.426136,122.342712 
	C3.825038,125.447136 2.412520,128.223572 1.000001,131.000000 
z"/>
<path fill="#EFEADB" opacity="1.000000" stroke="none" 
	d="
M1.000001,131.463181 
	C2.412520,128.223572 3.825038,125.447136 5.706964,122.348076 
	C6.554144,122.054688 6.931917,122.083923 7.309690,122.113159 
	C3.064360,130.279480 2.468229,138.958725 3.103357,147.854218 
	C2.013740,146.543655 1.506869,145.271835 0.999999,144.000000 
	C1.000000,139.975449 1.000000,135.950912 1.000001,131.463181 
z"/>
<path fill="#524439" opacity="1.000000" stroke="none" 
	d="
M8.444163,154.000000 
	C8.034162,153.518799 8.068323,153.037598 8.124430,152.193970 
	C11.638905,149.756790 14.860869,146.750198 20.788788,148.843048 
	C19.029665,150.699997 17.724941,152.077271 16.210110,153.727280 
	C13.629442,154.000000 11.258885,154.000000 8.444163,154.000000 
z"/>
<path fill="#FDC747" opacity="1.000000" stroke="none" 
	d="
M71.755508,3.248451 
	C70.920097,2.711614 70.497116,2.197333 70.037064,1.341526 
	C75.354927,1.000000 80.709862,1.000000 86.532394,1.000000 
	C82.055977,1.757002 77.111954,2.514004 71.755508,3.248451 
z"/>
<path fill="#F5C854" opacity="1.000000" stroke="none" 
	d="
M0.999999,144.486572 
	C1.506869,145.271835 2.013740,146.543655 2.754279,148.085709 
	C2.987947,148.355927 3.101833,148.518906 3.065581,148.995651 
	C3.352886,150.981598 3.676443,152.490799 4.000000,154.000000 
	C3.037852,154.000000 2.075703,154.000000 1.000000,154.000000 
	C1.000000,150.991516 1.000000,147.982330 0.999999,144.486572 
z"/>
<path fill="#EFE8DD" opacity="1.000000" stroke="none" 
	d="
M4.333333,154.000000 
	C3.676443,152.490799 3.352886,150.981598 3.014241,149.080780 
	C4.019190,150.212296 5.039228,151.735428 6.029634,153.629272 
	C5.555555,154.000000 5.111111,154.000000 4.333333,154.000000 
z"/>
<path fill="#FCCA50" opacity="1.000000" stroke="none" 
	d="
M1.868412,105.010277 
	C1.868412,105.010277 1.434256,105.000885 1.217128,105.000443 
	C1.000000,102.629440 1.000000,100.258888 1.221983,97.444214 
	C1.443966,97.000099 1.887923,97.003029 1.949139,97.436394 
	C2.070014,99.907082 2.129673,101.944412 2.111419,104.239594 
	C1.978475,104.668388 1.923444,104.839333 1.868412,105.010277 
z"/>
<path fill="#F3C94D" opacity="1.000000" stroke="none" 
	d="
M1.887923,97.003029 
	C1.887923,97.003029 1.443966,97.000099 1.221983,97.000046 
	C1.000000,96.250000 1.000000,95.500000 1.000000,94.375000 
	C1.000000,94.000000 1.471885,93.999283 1.787503,94.042130 
	C2.103122,94.084984 2.144113,94.288147 2.144730,94.629791 
	C2.059539,95.648628 1.973730,96.325829 1.887923,97.003029 
z"/>
<path fill="#151110" opacity="1.000000" stroke="none" 
	d="
M40.002197,70.111046 
	C42.080788,71.035072 44.159382,71.959106 46.653587,73.132736 
	C47.184349,73.409180 47.299492,73.436020 47.414635,73.462860 
	C47.328732,73.261703 47.242828,73.060539 47.156925,72.859383 
	C46.813393,68.572876 48.938408,66.877235 53.074497,66.865326 
	C57.524685,66.852493 61.974026,66.544098 67.125015,66.220901 
	C71.014595,67.229782 74.202888,68.382416 77.391182,69.535042 
	C81.972015,74.949310 86.520615,80.391502 91.163422,85.752083 
	C91.997643,86.715286 93.220291,87.342072 94.522293,88.403870 
	C95.517899,89.396675 96.254814,90.109787 96.991730,90.822899 
	C97.525047,93.768387 98.058365,96.713867 98.056458,99.824898 
	C97.268585,99.721397 97.015930,99.452354 96.805084,98.871552 
	C96.601265,98.026085 96.355629,97.492378 96.088959,96.598770 
	C88.398949,87.883255 80.740700,79.517670 73.020790,71.209381 
	C72.720383,70.886078 71.829071,71.111824 71.259407,71.084000 
	C71.259407,74.488754 71.259407,77.650146 71.259407,81.423218 
	C72.524071,80.610237 73.172089,79.850861 73.846512,79.826637 
	C75.621956,79.762856 77.408875,80.018646 79.191223,80.147171 
	C78.699234,81.887619 78.752312,84.202766 77.624298,85.272598 
	C71.585022,91.000412 51.764950,91.560799 45.283161,86.168480 
	C43.922386,85.036438 43.631081,82.618851 42.846966,80.793633 
	C44.703522,80.410370 46.560081,80.027107 48.560848,79.905869 
	C49.204975,80.459656 49.704891,80.751419 50.528915,81.027611 
	C51.285477,80.988708 51.717930,80.965378 52.409225,81.133148 
	C53.777702,81.884987 54.887337,82.445709 56.280796,83.292313 
	C59.704128,83.359505 62.843636,83.140823 65.984261,82.957382 
	C65.985374,82.992630 65.926361,82.953995 66.095734,82.929543 
	C66.488144,82.843071 66.680260,82.729004 67.168884,82.421364 
	C67.694283,80.860313 67.892250,79.440788 68.118057,77.584564 
	C68.193802,70.311905 67.469879,69.374039 61.854416,69.077339 
	C60.862049,69.024902 59.864609,69.064201 58.869541,69.067772 
	C49.727928,69.100571 49.727928,69.100990 51.053749,77.935730 
	C50.637501,78.470009 50.348644,78.731682 49.882172,78.902328 
	C49.704548,78.811302 49.349205,78.629440 49.221359,78.309319 
	C44.172520,75.780914 39.426735,72.931313 34.286133,71.526848 
	C27.875118,69.775307 22.861259,75.319321 24.451380,81.825279 
	C25.152325,84.693192 26.795435,87.333061 27.474342,90.203354 
	C27.964989,92.277710 28.476538,95.356682 27.390776,96.593063 
	C24.792030,99.552292 26.491573,101.275284 27.759113,103.295837 
	C25.910097,103.207451 24.395332,103.191360 22.933563,102.736847 
	C23.339878,100.205353 23.840504,98.123924 24.006975,96.016098 
	C24.190105,93.697304 24.774689,91.065727 23.961584,89.068146 
	C18.298698,75.156036 22.858154,68.431900 37.989296,69.365761 
	C38.791161,69.783615 39.396679,69.947327 40.002197,70.111046 
M69.419762,84.326744 
	C61.154793,85.610527 52.974014,86.034569 45.174843,82.039444 
	C51.192284,88.934082 59.305706,86.963181 66.814201,86.874603 
	C70.650002,86.829353 74.654495,85.891678 76.345268,81.369667 
	C74.298180,82.280640 72.251091,83.191612 69.419762,84.326744 
z"/>
<path fill="#A3A3A3" opacity="1.000000" stroke="none" 
	d="
M64.059006,9.244825 
	C70.748436,7.584702 77.493813,6.303576 84.634567,5.023150 
	C86.696350,10.058274 88.362762,15.092698 89.639259,20.588203 
	C85.973663,21.706347 82.697983,22.363409 79.422302,23.020473 
	C75.251747,20.412540 70.904533,18.037607 67.000740,15.077833 
	C65.514679,13.951136 65.046844,11.481439 64.059006,9.244825 
z"/>
<path fill="#F0EDE0" opacity="1.000000" stroke="none" 
	d="
M40.087318,69.697372 
	C39.396679,69.947327 38.791161,69.783615 38.013748,69.009079 
	C31.821314,61.491692 23.461649,61.349369 16.597712,68.329720 
	C10.511827,74.518822 6.834244,82.058342 4.909684,90.532547 
	C4.594104,91.922104 3.095796,93.043053 2.144114,94.288147 
	C2.144113,94.288147 2.103122,94.084984 2.022333,94.019241 
	C3.449175,82.374237 8.197419,72.377686 17.077234,64.712471 
	C21.930613,60.522949 27.828337,59.540127 33.860653,62.015064 
	C37.686970,63.584930 38.324497,61.762905 38.138237,58.694561 
	C37.797318,53.078556 37.357731,47.468544 37.245377,41.289307 
	C37.717289,40.443642 37.903122,40.164703 38.088951,39.885769 
	C38.783447,49.685078 39.477940,59.484383 40.087318,69.697372 
z"/>
<path fill="#575757" opacity="1.000000" stroke="none" 
	d="
M138.950806,58.123840 
	C139.701126,57.501232 140.451447,56.878624 141.201767,56.256020 
	C141.782028,57.168221 142.792252,58.054447 142.849289,58.998276 
	C142.954346,60.736610 142.499252,62.508801 142.233673,64.615326 
	C140.913300,64.822540 139.334564,65.070297 137.576843,65.346146 
	C138.411072,70.870895 133.659256,68.687965 131.366104,69.876221 
	C128.722992,71.245811 125.929199,72.451584 123.066025,73.237045 
	C119.563950,74.197784 115.921913,74.648331 112.384094,74.715820 
	C115.151917,73.235947 119.458687,75.380806 119.920853,70.186768 
	C120.901917,68.714752 121.882988,67.242737 123.330551,65.414490 
	C125.926987,65.242180 128.119675,65.837692 130.173798,65.524467 
	C134.469025,64.869469 138.769012,63.826355 138.950806,58.123840 
z"/>
<path fill="#E3E3E3" opacity="1.000000" stroke="none" 
	d="
M97.157883,90.495728 
	C96.254814,90.109787 95.517899,89.396675 94.870331,88.339691 
	C99.767372,87.282730 104.751007,85.415298 109.343315,86.115265 
	C117.077560,87.294159 121.830162,93.829010 120.892418,101.676750 
	C120.241112,107.127373 117.703186,112.352562 116.008133,117.678474 
	C115.359932,117.478058 114.711723,117.277649 114.063522,117.077240 
	C114.214157,116.105202 114.200996,115.069855 114.547386,114.173462 
	C115.443527,111.854401 116.591324,109.631874 117.471672,107.307564 
	C119.835266,101.067192 118.817978,95.234169 114.842293,91.634605 
	C109.898384,87.158424 104.442421,86.701828 97.157883,90.495728 
z"/>
<path fill="#E5E5E5" opacity="1.000000" stroke="none" 
	d="
M77.824608,69.487900 
	C74.202888,68.382416 71.014595,67.229782 67.482132,65.978210 
	C66.007584,63.555443 66.354149,62.273075 69.240273,63.155396 
	C71.273315,63.776917 73.206978,64.718643 75.231506,65.373726 
	C82.948341,67.870689 90.376282,67.990112 97.416702,62.356220 
	C97.784492,62.219803 97.784233,62.370548 97.784225,62.370552 
	C97.952950,62.761410 98.121674,63.152271 98.339180,63.950394 
	C98.387970,64.357651 98.378235,64.853218 98.378235,64.853210 
	C97.866890,65.326317 97.355545,65.799431 96.413300,66.558868 
	C94.956116,67.473190 93.929832,68.101181 92.903549,68.729172 
	C88.021713,68.966370 83.139870,69.203568 77.824608,69.487900 
z"/>
<path fill="#675A4D" opacity="1.000000" stroke="none" 
	d="
M90.034012,118.200203 
	C91.940689,116.783974 95.083946,116.323868 94.391235,112.364410 
	C95.024834,111.622620 95.497299,111.289665 95.969757,110.956711 
	C96.376617,115.545235 96.783485,120.133766 97.190346,124.722290 
	C96.992180,124.772087 96.794006,124.821877 96.595840,124.871674 
	C96.020302,123.564415 95.444756,122.257156 94.869217,120.949905 
	C94.500473,121.080513 94.131737,121.211121 93.763000,121.341728 
	C94.151154,124.086342 94.539307,126.830963 94.943253,129.687210 
	C93.628075,130.593369 91.540176,132.031937 88.858521,133.742676 
	C87.770859,134.006073 87.276962,133.997284 86.783058,133.988495 
	C86.783058,133.988495 86.800728,133.563522 86.872543,132.962585 
	C87.974236,127.641167 89.004128,122.920685 90.034012,118.200203 
z"/>
<path fill="#F4F4F4" opacity="1.000000" stroke="none" 
	d="
M79.524597,23.380293 
	C82.697983,22.363409 85.973663,21.706347 89.659966,20.978741 
	C90.505859,22.110876 91.222771,23.294485 91.305832,24.521013 
	C91.412094,26.090267 91.086075,29.053499 90.810738,29.069412 
	C88.468651,29.204765 85.843246,29.349588 83.809074,28.403240 
	C82.068588,27.593521 80.995293,25.349663 79.524597,23.380293 
z"/>
<path fill="#A0A0A0" opacity="1.000000" stroke="none" 
	d="
M101.626564,35.947487 
	C98.874352,36.111954 96.515099,36.579426 94.240448,36.316059 
	C91.797920,36.033264 89.434898,35.063869 87.037178,34.394085 
	C87.136421,33.570030 87.235664,32.745972 87.334908,31.921917 
	C91.971382,31.671219 96.606644,31.315342 101.245384,31.262180 
	C102.129929,31.252043 103.702415,32.388889 103.752411,33.083309 
	C103.817429,33.986416 102.677879,34.976254 101.626564,35.947487 
z"/>
<path fill="#E8E8E8" opacity="1.000000" stroke="none" 
	d="
M138.588852,58.083282 
	C138.769012,63.826355 134.469025,64.869469 130.173798,65.524467 
	C128.119675,65.837692 125.926987,65.242180 123.399254,65.064743 
	C121.423309,64.234016 119.845169,63.396809 118.267029,62.559597 
	C118.353996,62.004036 118.440964,61.448471 118.527931,60.892910 
	C125.614677,62.631329 132.609222,63.893459 138.588852,58.083282 
z"/>
<path fill="#EFE9DB" opacity="1.000000" stroke="none" 
	d="
M124.981636,26.392941 
	C127.209549,27.252518 129.940384,27.995457 131.611313,29.748587 
	C135.677109,34.014370 139.250992,38.749020 142.857941,43.716022 
	C142.448914,44.452175 142.204941,44.767128 141.960968,45.082085 
	C138.724777,42.276302 135.224808,39.715305 132.328278,36.594288 
	C129.559769,33.611195 127.419083,30.045450 124.981636,26.392941 
z"/>
<path fill="#E6E6E6" opacity="1.000000" stroke="none" 
	d="
M119.519646,70.204147 
	C119.458687,75.380806 115.151917,73.235947 112.155090,74.384857 
	C110.466354,75.085716 109.050301,75.513863 107.014633,76.081062 
	C105.631805,76.278763 104.868591,76.337410 104.105370,76.396057 
	C103.414238,75.382408 99.364807,76.365021 102.809464,73.524139 
	C106.268867,72.892860 109.147163,71.975830 112.025459,71.058792 
	C114.389786,70.779701 116.754112,70.500618 119.519646,70.204147 
z"/>
<path fill="#D0941F" opacity="1.000000" stroke="none" 
	d="
M96.121002,110.604340 
	C95.497299,111.289665 95.024834,111.622620 94.293205,112.080765 
	C94.034042,112.205956 93.920380,112.103630 93.841766,111.816063 
	C93.596352,111.220329 93.341484,111.029869 93.048355,110.628708 
	C93.396469,106.907158 93.694778,103.514000 94.267456,100.001923 
	C95.282310,99.649765 96.022789,99.416542 96.763275,99.183311 
	C97.015930,99.452354 97.268585,99.721397 97.780014,100.106369 
	C97.449944,103.565514 96.861092,106.908737 96.121002,110.604340 
z"/>
<path fill="#F1EDE3" opacity="1.000000" stroke="none" 
	d="
M44.375481,16.918880 
	C45.259335,16.898994 45.823895,16.958918 46.812096,17.052437 
	C44.745544,20.323217 42.255356,23.560398 39.114422,26.901535 
	C38.018860,27.010468 37.574043,27.015444 37.129223,27.020420 
	C39.438213,23.679844 41.747204,20.339268 44.375481,16.918880 
z"/>
<path fill="#F3F0E1" opacity="1.000000" stroke="none" 
	d="
M142.109344,45.374413 
	C142.204941,44.767128 142.448914,44.452175 142.959503,43.991451 
	C145.385910,46.355301 147.545700,48.864918 149.810486,51.703568 
	C149.406403,52.042320 148.897308,52.052032 148.007050,52.095947 
	C145.836517,49.975677 144.047134,47.821209 142.109344,45.374413 
z"/>
<path fill="#545454" opacity="1.000000" stroke="none" 
	d="
M111.798233,70.794113 
	C109.147163,71.975830 106.268867,72.892860 103.133850,73.544449 
	C105.775093,72.362480 108.673050,71.445953 111.798233,70.794113 
z"/>
<path fill="#FFF8FE" opacity="1.000000" stroke="none" 
	d="
M37.077789,27.481358 
	C37.574043,27.015444 38.018860,27.010468 38.797211,27.020195 
	C38.757954,31.038031 38.385166,35.041161 38.050667,39.465027 
	C37.903122,40.164703 37.717289,40.443642 37.307755,40.841476 
	C37.064819,36.621021 37.045589,32.281658 37.077789,27.481358 
z"/>
<path fill="#545454" opacity="1.000000" stroke="none" 
	d="
M92.961533,69.071365 
	C93.929832,68.101181 94.956116,67.473190 96.282761,66.790054 
	C96.690704,67.630898 96.798294,68.526894 96.905884,69.422890 
	C95.610428,69.419777 94.314980,69.416664 92.961533,69.071365 
z"/>
<path fill="#555053" opacity="1.000000" stroke="none" 
	d="
M86.546524,134.208893 
	C87.276962,133.997284 87.770859,134.006073 88.634094,134.014557 
	C91.222916,137.165054 88.694359,136.843552 86.453857,137.005005 
	C86.161995,136.149612 86.235992,135.289444 86.546524,134.208893 
z"/>
<path fill="#545454" opacity="1.000000" stroke="none" 
	d="
M105.048981,67.432785 
	C104.039780,67.632347 103.309715,67.682953 102.579651,67.733551 
	C102.537560,67.319351 102.495468,66.905151 102.453384,66.490952 
	C103.608276,66.423073 104.763077,66.353157 105.918724,66.302414 
	C105.940941,66.301430 106.036957,66.580177 105.989456,66.636627 
	C105.791779,66.871521 105.552269,67.071213 105.048981,67.432785 
z"/>
<path fill="#545454" opacity="1.000000" stroke="none" 
	d="
M102.676361,55.152618 
	C102.701920,55.790791 102.403961,56.353233 102.106003,56.915672 
	C101.604088,56.649109 101.102173,56.382545 100.600258,56.115982 
	C101.184456,55.769619 101.768646,55.423256 102.676361,55.152618 
z"/>
<path fill="#545454" opacity="1.000000" stroke="none" 
	d="
M96.613770,57.540001 
	C97.058487,57.654907 97.328232,57.937069 97.597969,58.219231 
	C97.480972,58.330711 97.268204,58.545616 97.260788,58.538746 
	C96.975090,58.274216 96.708191,57.989395 96.613770,57.540001 
z"/>
<path fill="#575757" opacity="1.000000" stroke="none" 
	d="
M129.971954,71.346924 
	C129.445587,71.687141 128.753937,71.827744 128.062271,71.968353 
	C128.028778,71.752785 127.995293,71.537216 127.961807,71.321648 
	C128.576752,71.263542 129.191696,71.205429 129.971954,71.346924 
z"/>
<path fill="#EAEADC" opacity="1.000000" stroke="none" 
	d="
M57.407608,13.805294 
	C57.865910,13.588041 58.678467,13.434355 59.692818,13.460188 
	C59.183697,13.716093 58.472778,13.792477 57.407608,13.805294 
z"/>
<path fill="#545454" opacity="1.000000" stroke="none" 
	d="
M104.214203,76.756119 
	C104.868591,76.337410 105.631805,76.278763 106.774689,76.276581 
	C106.210579,76.594093 105.266808,76.855141 104.214203,76.756119 
z"/>
<path fill="#545454" opacity="1.000000" stroke="none" 
	d="
M97.709160,62.222260 
	C97.882095,62.108597 98.130363,61.992477 98.378632,61.876362 
	C98.283226,61.958141 98.187828,62.039921 97.938332,62.246124 
	C97.784233,62.370548 97.784492,62.219803 97.709160,62.222260 
z"/>
<path fill="#545454" opacity="1.000000" stroke="none" 
	d="
M98.629555,64.830612 
	C98.378235,64.853218 98.387970,64.357651 98.468857,64.123199 
	C98.660118,64.195168 98.770493,64.501595 98.629555,64.830612 
z"/>
<path fill="#545454" opacity="1.000000" stroke="none" 
	d="
M109.468742,78.451714 
	C109.522186,78.420486 109.415298,78.482941 109.468742,78.451714 
z"/>
<path fill="#F3F0E1" opacity="1.000000" stroke="none" 
	d="
M151.799133,55.598083 
	C151.194870,54.888596 150.592056,53.825600 149.974396,52.435234 
	C150.573227,53.153431 151.186905,54.199001 151.799133,55.598083 
z"/>
<path fill="#F9C742" opacity="1.000000" stroke="none" 
	d="
M143.899628,84.507858 
	C145.068619,83.791962 146.053879,83.377670 147.333893,82.844818 
	C148.203766,84.455917 148.778885,86.185577 149.478836,88.290649 
	C147.077469,88.757820 145.496902,89.065315 143.915070,89.372574 
	C142.953110,92.751228 141.640869,96.082787 141.177094,99.528549 
	C140.938110,101.303993 142.165451,103.297981 142.819672,105.161835 
	C143.073639,105.885384 143.943237,106.542999 143.906769,107.195702 
	C143.394653,116.361084 142.774368,125.520424 141.840149,134.820282 
	C141.039993,127.299416 140.580048,119.639473 140.402557,111.746437 
	C141.299683,112.700584 141.914337,113.887833 142.528992,115.075081 
	C142.697372,115.012978 142.865768,114.950867 143.034149,114.888763 
	C142.670273,113.010078 142.306396,111.131393 141.942505,109.252716 
	C141.348190,109.483887 140.753876,109.715050 140.159561,109.946213 
	C139.786072,104.203224 139.619370,98.436707 138.969360,92.725197 
	C138.504364,88.639244 139.938232,86.133202 143.899628,84.507858 
z"/>
<path fill="#F9C742" opacity="1.000000" stroke="none" 
	d="
M141.449524,137.845749 
	C141.355011,137.913086 141.349686,137.519073 141.438324,137.343613 
	C141.698563,137.373993 141.704254,137.577408 141.449524,137.845749 
z"/>
<path fill="#CE9819" opacity="1.000000" stroke="none" 
	d="
M93.993080,100.120850 
	C93.694778,103.514000 93.396469,106.907158 92.989639,110.845673 
	C92.881126,111.391045 92.775009,111.827499 92.775009,111.827499 
	C92.385040,112.130928 91.995064,112.434349 91.042519,112.700638 
	C83.984848,113.800423 77.489754,114.937340 70.621582,116.041595 
	C69.499641,115.994247 68.750778,115.979546 67.722473,115.816895 
	C66.664299,115.356903 65.885559,115.044876 65.106819,114.732849 
	C63.906479,111.211578 62.257973,111.471672 59.674805,113.661934 
	C58.186691,114.923683 55.893898,115.992264 54.017174,115.910561 
	C45.336411,115.532654 36.674534,114.720924 27.609324,114.072876 
	C26.642912,112.196503 26.239862,110.237915 25.447727,108.451889 
	C24.867743,107.144196 23.776659,106.063194 22.622841,104.589432 
	C22.515055,103.923561 22.697811,103.549416 22.880566,103.175270 
	C24.395332,103.191360 25.910097,103.207451 27.755131,103.612206 
	C28.343416,107.946571 28.002705,112.395386 34.450726,111.522949 
	C36.082825,111.763023 37.500031,111.800346 39.308674,111.898788 
	C44.776363,115.167671 49.701199,113.210884 54.792923,111.733826 
	C55.342972,110.577705 55.733986,109.209831 56.079117,107.570923 
	C56.046917,106.933754 56.060596,106.567619 56.333549,106.102364 
	C56.725349,105.683075 56.857880,105.362923 57.265198,104.998047 
	C57.907986,104.937721 58.275990,104.922104 58.821270,105.245201 
	C61.719910,107.872765 64.223358,107.394775 66.874771,105.253265 
	C67.773003,107.354103 68.041000,109.398407 69.042511,110.977470 
	C70.801048,113.750122 73.049210,114.589027 75.575325,111.180656 
	C79.301033,110.414612 82.667976,109.645020 86.215256,108.946808 
	C86.395592,109.018204 86.780777,109.064072 87.021255,109.304703 
	C90.750565,109.548683 92.246330,107.855202 92.281532,104.327278 
	C92.295578,102.919586 93.390305,101.522667 93.993080,100.120850 
z"/>
<path fill="#907970" opacity="1.000000" stroke="none" 
	d="
M70.994652,116.074249 
	C77.489754,114.937340 83.984848,113.800423 90.813919,112.804062 
	C88.455635,115.073814 85.763374,117.203011 82.981865,119.676163 
	C79.519791,120.013062 76.146965,120.005997 72.385849,120.000687 
	C69.100426,119.465179 64.271484,122.003227 65.073082,115.182190 
	C65.885559,115.044876 66.664299,115.356903 67.769493,116.151764 
	C69.062180,116.447815 70.028419,116.261032 70.994652,116.074249 
z"/>
<path fill="#52453A" opacity="1.000000" stroke="none" 
	d="
M26.583206,145.125580 
	C26.629015,143.904877 27.045618,142.650955 27.731951,141.198120 
	C30.039465,141.648056 32.077248,142.296906 34.115032,142.945755 
	C34.021465,143.661301 33.927898,144.376831 33.834332,145.092377 
	C31.540888,145.092377 29.247444,145.092377 26.583206,145.125580 
z"/>
<path fill="#4F4239" opacity="1.000000" stroke="none" 
	d="
M30.163208,136.105408 
	C30.004383,134.982468 30.054922,134.205811 30.272881,133.068817 
	C32.395596,133.354355 34.350895,134.000214 36.306194,134.646088 
	C36.181961,135.348160 36.057728,136.050247 35.933491,136.752319 
	C34.079853,136.652100 32.226215,136.551880 30.163208,136.105408 
z"/>
<path fill="#4B4239" opacity="1.000000" stroke="none" 
	d="
M25.732716,116.783234 
	C31.449446,123.138107 31.447332,123.135590 24.860743,128.659286 
	C24.490269,128.969971 24.200388,129.376770 23.629337,129.942108 
	C20.182384,125.787804 15.247200,125.564056 10.140213,124.580025 
	C11.541070,118.203735 16.044224,114.698303 21.908550,112.131454 
	C23.110826,113.644913 24.282766,115.120186 25.732716,116.783234 
z"/>
<path fill="#54483D" opacity="1.000000" stroke="none" 
	d="
M20.428532,138.939606 
	C21.227472,140.322662 21.606909,141.755936 22.030418,143.557190 
	C19.305574,144.140900 16.533651,144.535004 13.769168,144.488342 
	C12.591548,144.468445 11.429489,143.526978 10.260361,143.004288 
	C11.088414,141.983536 11.738711,140.378357 12.780818,140.061386 
	C15.085652,139.360382 17.587526,139.307220 20.428532,138.939606 
z"/>
<path fill="#51453E" opacity="1.000000" stroke="none" 
	d="
M6.268760,136.768433 
	C5.980652,134.672363 6.157105,132.628052 6.539515,130.270264 
	C8.756089,130.604141 10.917498,130.984253 12.719591,132.001144 
	C13.765771,132.591492 14.234729,134.204758 14.963428,135.357727 
	C13.883490,135.887405 12.846243,136.712585 11.713425,136.876221 
	C10.089972,137.110764 8.396753,136.862381 6.268760,136.768433 
z"/>
<path fill="#5B5B5A" opacity="1.000000" stroke="none" 
	d="
M22.933561,102.736847 
	C22.697811,103.549416 22.515055,103.923561 22.287216,104.506332 
	C22.115034,106.194412 21.987938,107.673874 21.971254,107.868088 
	C17.039906,111.926605 12.874187,115.355011 8.086454,118.682602 
	C6.858008,116.691200 6.314071,114.777679 5.630892,112.915237 
	C4.532059,109.919670 3.341267,106.957825 2.189330,103.981735 
	C2.129673,101.944412 2.070014,99.907082 1.949139,97.436394 
	C1.973730,96.325829 2.059539,95.648628 2.144731,94.629791 
	C3.095796,93.043053 4.594104,91.922104 4.909684,90.532547 
	C6.834244,82.058342 10.511827,74.518822 16.597712,68.329720 
	C23.461649,61.349369 31.821314,61.491692 37.817402,68.754944 
	C22.858154,68.431900 18.298698,75.156036 23.961584,89.068146 
	C24.774689,91.065727 24.190105,93.697304 24.006975,96.016098 
	C23.840504,98.123924 23.339878,100.205353 22.933561,102.736847 
z"/>
<path fill="#F3EADC" opacity="1.000000" stroke="none" 
	d="
M2.111418,104.239594 
	C3.341267,106.957825 4.532059,109.919670 5.630892,112.915237 
	C6.314071,114.777679 6.858008,116.691200 7.771131,118.791634 
	C7.991829,119.890327 7.905836,120.779190 7.564766,121.890602 
	C6.931917,122.083923 6.554144,122.054688 5.895543,122.020096 
	C4.405149,116.623077 3.195584,111.231422 1.927215,105.425018 
	C1.923444,104.839333 1.978475,104.668388 2.111418,104.239594 
z"/>
<path fill="#FDC748" opacity="1.000000" stroke="none" 
	d="
M140.133423,110.232986 
	C140.753876,109.715050 141.348190,109.483887 141.942505,109.252716 
	C142.306396,111.131393 142.670273,113.010078 143.034149,114.888763 
	C142.865768,114.950867 142.697372,115.012978 142.528992,115.075081 
	C141.914337,113.887833 141.299683,112.700584 140.454865,111.298454 
	C140.185577,110.895630 140.146423,110.707687 140.133423,110.232986 
z"/>
<path fill="#535153" opacity="1.000000" stroke="none" 
	d="
M26.102650,136.999054 
	C25.514927,138.701660 25.018408,140.035645 24.242855,142.119278 
	C21.909109,136.763077 23.858582,133.353058 26.591866,130.141724 
	C27.037029,130.243057 27.482193,130.344376 27.927357,130.445709 
	C27.349524,132.507263 26.771688,134.568832 26.102650,136.999054 
z"/>
<path fill="#555053" opacity="1.000000" stroke="none" 
	d="
M89.682892,118.296005 
	C89.004128,122.920685 87.974236,127.641167 86.891685,132.750793 
	C86.667305,128.054428 83.256638,122.421471 89.682892,118.296005 
z"/>
<path fill="#675A4D" opacity="1.000000" stroke="none" 
	d="
M93.023941,111.910629 
	C92.775009,111.827499 92.881126,111.391045 92.939835,111.174080 
	C93.341484,111.029869 93.596352,111.220329 93.780289,111.770599 
	C93.622566,112.006401 93.447716,112.000084 93.023941,111.910629 
z"/>
<path fill="#8C7A6C" opacity="1.000000" stroke="none" 
	d="
M34.235832,111.320198 
	C28.002705,112.395386 28.343416,107.946571 28.089382,103.684502 
	C26.491573,101.275284 24.792030,99.552292 27.390776,96.593063 
	C28.476538,95.356682 27.964989,92.277710 27.474342,90.203354 
	C26.795435,87.333061 25.152325,84.693192 24.451380,81.825279 
	C22.861259,75.319321 27.875118,69.775307 34.286133,71.526848 
	C39.426735,72.931313 44.172520,75.780914 48.978271,78.554596 
	C48.714230,79.294601 48.565434,79.469223 48.416637,79.643845 
	C46.560081,80.027107 44.703522,80.410370 42.846966,80.793633 
	C43.631081,82.618851 43.922386,85.036438 45.283161,86.168480 
	C51.764950,91.560799 71.585022,91.000412 77.624298,85.272598 
	C78.752312,84.202766 78.699234,81.887619 79.191223,80.147171 
	C77.408875,80.018646 75.621956,79.762856 73.846512,79.826637 
	C73.172089,79.850861 72.524071,80.610237 71.259407,81.423218 
	C71.259407,77.650146 71.259407,74.488754 71.259407,71.084000 
	C71.829071,71.111824 72.720383,70.886078 73.020790,71.209381 
	C80.740700,79.517670 88.398949,87.883255 95.662567,96.613411 
	C92.429581,97.625595 89.601936,98.263245 86.850616,98.515244 
	C83.931686,96.690765 68.841545,100.056297 67.175369,102.621666 
	C66.755791,103.267685 66.763496,104.191223 66.574844,104.987228 
	C64.223358,107.394775 61.719910,107.872765 58.764107,104.924881 
	C58.104980,103.779175 57.770821,103.025803 57.241898,102.846298 
	C50.518097,100.564407 43.829403,98.116730 36.963856,96.372009 
	C35.720013,96.055916 32.337379,98.702881 32.333355,99.989403 
	C32.321545,103.764313 33.514645,107.542992 34.235832,111.320198 
z"/>
<path fill="#554655" opacity="1.000000" stroke="none" 
	d="
M51.181145,77.663124 
	C49.727928,69.100990 49.727928,69.100571 58.869541,69.067772 
	C59.864609,69.064201 60.862049,69.024902 61.854416,69.077339 
	C67.469879,69.374039 68.193802,70.311905 67.694717,77.605042 
	C62.192329,78.069611 57.141113,78.077011 51.857208,77.990952 
	C51.476727,77.819366 51.328934,77.741241 51.181145,77.663124 
z"/>
<path fill="#4D4553" opacity="1.000000" stroke="none" 
	d="
M69.811882,84.214668 
	C72.251091,83.191612 74.298180,82.280640 76.345268,81.369667 
	C74.654495,85.891678 70.650002,86.829353 66.814201,86.874603 
	C59.305706,86.963181 51.192284,88.934082 45.174843,82.039444 
	C52.974014,86.034569 61.154793,85.610527 69.811882,84.214668 
z"/>
<path fill="#AB572F" opacity="1.000000" stroke="none" 
	d="
M52.089897,78.084412 
	C57.141113,78.077011 62.192329,78.069611 67.666885,78.041740 
	C67.892250,79.440788 67.694283,80.860313 66.985916,82.363724 
	C66.199257,82.515114 66.016205,82.683899 65.926361,82.953995 
	C65.926361,82.953995 65.985374,82.992630 65.530899,82.943329 
	C62.049934,82.931496 59.023457,82.968964 55.996975,83.006439 
	C54.887337,82.445709 53.777702,81.884987 52.396145,80.774864 
	C52.112782,79.511787 52.101341,78.798096 52.089897,78.084412 
z"/>
<path fill="#957F6A" opacity="1.000000" stroke="none" 
	d="
M86.774300,98.900902 
	C89.601936,98.263245 92.429581,97.625595 95.683609,96.973297 
	C96.355629,97.492378 96.601265,98.026085 96.805084,98.871552 
	C96.022789,99.416542 95.282310,99.649765 94.267456,100.001923 
	C93.390305,101.522667 92.295578,102.919586 92.281532,104.327278 
	C92.246330,107.855202 90.750565,109.548683 87.126923,108.941132 
	C86.913208,108.098106 86.834305,107.859261 86.829132,107.698021 
	C86.902863,107.775620 86.809174,107.968102 87.129982,107.844177 
	C87.355820,106.516495 87.260849,105.312729 87.129852,103.693832 
	C87.058655,101.891579 87.023483,100.504448 86.906059,99.091652 
	C86.823807,99.065979 86.774300,98.900902 86.774300,98.900902 
z"/>
<path fill="#19100E" opacity="1.000000" stroke="none" 
	d="
M56.280796,83.292313 
	C59.023457,82.968964 62.049934,82.931496 65.529785,82.908081 
	C62.843636,83.140823 59.704128,83.359505 56.280796,83.292313 
z"/>
<path fill="#19100E" opacity="1.000000" stroke="none" 
	d="
M51.857208,77.990952 
	C52.101341,78.798096 52.112782,79.511787 52.137306,80.583755 
	C51.717930,80.965378 51.285477,80.988708 50.504128,80.685867 
	C50.123413,79.904251 50.091599,79.448807 50.059792,78.993355 
	C50.348644,78.731682 50.637501,78.470009 51.053749,77.935730 
	C51.328934,77.741241 51.476727,77.819366 51.857208,77.990952 
z"/>
<path fill="#8C7A6C" opacity="1.000000" stroke="none" 
	d="
M49.882168,78.902328 
	C50.091599,79.448807 50.123413,79.904251 50.180019,80.701447 
	C49.704891,80.751419 49.204975,80.459656 48.560848,79.905869 
	C48.565434,79.469223 48.714230,79.294601 49.106113,78.874710 
	C49.349205,78.629440 49.704548,78.811302 49.882168,78.902328 
z"/>
<path fill="#5A5A5A" opacity="1.000000" stroke="none" 
	d="
M47.091103,72.921127 
	C47.242828,73.060539 47.328732,73.261703 47.414635,73.462860 
	C47.299492,73.436020 47.184349,73.409180 46.985229,73.248169 
	C46.901249,73.114006 47.025276,72.982872 47.091103,72.921127 
z"/>
<path fill="#19100E" opacity="1.000000" stroke="none" 
	d="
M66.095734,82.929543 
	C66.016205,82.683899 66.199257,82.515114 66.658493,82.505264 
	C66.680260,82.729004 66.488144,82.843071 66.095734,82.929543 
z"/>
<path fill="#4F2F1C" opacity="1.000000" stroke="none" 
	d="
M56.990417,105.042770 
	C56.857880,105.362923 56.725349,105.683075 55.902298,106.158424 
	C54.996349,107.579231 54.780918,108.844841 54.610634,110.105820 
	C54.655781,110.101189 54.851307,110.106270 54.813232,110.462723 
	C54.728065,111.053474 54.680977,111.287773 54.633888,111.522072 
	C49.701199,113.210884 44.776363,115.167671 39.150360,111.580688 
	C37.387047,108.410995 35.785900,105.716469 35.064983,102.804054 
	C34.287853,99.664543 36.385155,98.460983 39.204449,99.300758 
	C45.173615,101.078773 51.066341,103.113388 56.990417,105.042770 
z"/>
<path fill="#4F2C18" opacity="1.000000" stroke="none" 
	d="
M86.034927,108.875420 
	C82.667976,109.645020 79.301033,110.414612 75.368408,110.884384 
	C73.153717,109.277931 71.131721,108.219803 70.021873,106.553963 
	C69.510048,105.785728 70.485886,102.813179 71.293610,102.577789 
	C76.177292,101.154533 81.207436,100.233826 86.131966,99.551498 
	C86.034950,102.605431 85.994576,105.252937 85.974388,108.144196 
	C85.994576,108.387939 86.034927,108.875420 86.034927,108.875420 
z"/>
<path fill="#1D1716" opacity="1.000000" stroke="none" 
	d="
M57.265202,104.998047 
	C51.066341,103.113388 45.173615,101.078773 39.204449,99.300758 
	C36.385155,98.460983 34.287853,99.664543 35.064983,102.804054 
	C35.785900,105.716469 37.387047,108.410995 38.758923,111.519562 
	C37.500031,111.800346 36.082825,111.763023 34.450726,111.522949 
	C33.514645,107.542992 32.321545,103.764313 32.333355,99.989403 
	C32.337379,98.702881 35.720013,96.055916 36.963856,96.372009 
	C43.829403,98.116730 50.518097,100.564407 57.241898,102.846298 
	C57.770821,103.025803 58.104980,103.779175 58.586823,104.586166 
	C58.275990,104.922104 57.907986,104.937721 57.265202,104.998047 
z"/>
<path fill="#160E0B" opacity="1.000000" stroke="none" 
	d="
M86.188606,99.145088 
	C81.207436,100.233826 76.177292,101.154533 71.293610,102.577789 
	C70.485886,102.813179 69.510048,105.785728 70.021873,106.553963 
	C71.131721,108.219803 73.153717,109.277931 75.009651,110.880829 
	C73.049210,114.589027 70.801048,113.750122 69.042511,110.977470 
	C68.041000,109.398407 67.773003,107.354103 66.874771,105.253265 
	C66.763496,104.191223 66.755791,103.267685 67.175369,102.621666 
	C68.841545,100.056297 83.931686,96.690765 86.850616,98.515244 
	C86.774300,98.900902 86.823807,99.065979 86.706131,99.097244 
	C86.588455,99.128517 86.188606,99.145088 86.188606,99.145088 
z"/>
<path fill="#28251F" opacity="1.000000" stroke="none" 
	d="
M54.792923,111.733826 
	C54.680977,111.287773 54.728065,111.053474 54.825958,110.401260 
	C54.876766,109.983345 54.752605,109.977692 55.003838,109.631790 
	C55.545044,108.804573 55.835026,108.323265 56.125000,107.841957 
	C55.733986,109.209831 55.342972,110.577705 54.792923,111.733826 
z"/>
<path fill="#8D7B6F" opacity="1.000000" stroke="none" 
	d="
M70.621582,116.041595 
	C70.028419,116.261032 69.062180,116.447815 68.048935,116.299721 
	C68.750778,115.979546 69.499641,115.994247 70.621582,116.041595 
z"/>
<path fill="#E0DAD1" opacity="1.000000" stroke="none" 
	d="
M56.079121,107.570923 
	C55.835026,108.323265 55.545044,108.804573 54.926529,109.617065 
	C54.597992,109.948257 54.565487,110.110458 54.565491,110.110458 
	C54.780918,108.844841 54.996349,107.579231 55.643028,106.257553 
	C56.060596,106.567619 56.046917,106.933754 56.079121,107.570923 
z"/>
<path fill="#1C1315" opacity="1.000000" stroke="none" 
	d="
M86.215256,108.946808 
	C86.034927,108.875420 85.994576,108.387939 86.129234,107.943542 
	C86.427727,107.539558 86.591560,107.579987 86.755402,107.620422 
	C86.834305,107.859261 86.913208,108.098106 86.886444,108.700508 
	C86.780777,109.064072 86.395592,109.018204 86.215256,108.946808 
z"/>
<path fill="#EFEFE9" opacity="1.000000" stroke="none" 
	d="
M86.829132,107.698021 
	C86.591560,107.579987 86.427727,107.539558 86.109047,107.699799 
	C85.994576,105.252937 86.034950,102.605431 86.131966,99.551498 
	C86.188606,99.145088 86.588455,99.128517 86.788383,99.122925 
	C87.023483,100.504448 87.058655,101.891579 87.044724,104.102013 
	C86.933479,105.939583 86.871323,106.953842 86.809174,107.968102 
	C86.809174,107.968102 86.902863,107.775620 86.829132,107.698021 
z"/>
<path fill="#1C1315" opacity="1.000000" stroke="none" 
	d="
M87.129974,107.844177 
	C86.871323,106.953842 86.933479,105.939583 87.080750,104.517151 
	C87.260849,105.312729 87.355820,106.516495 87.129974,107.844177 
z"/>
<path fill="#CE9819" opacity="1.000000" stroke="none" 
	d="
M54.610634,110.105820 
	C54.565487,110.110458 54.597992,109.948257 54.675301,109.962975 
	C54.752605,109.977692 54.876766,109.983345 54.864037,110.044807 
	C54.851307,110.106270 54.655781,110.101189 54.610634,110.105820 
z"/>
</svg>